<svg version="1.1" viewBox="0.0 0.0 600.0 371.0" fill="none" stroke="none" stroke-linecap="square" stroke-miterlimit="10" width="600" height="371" xmlns:xlink="http://www.w3.org/1999/xlink" xmlns="http://www.w3.org/2000/svg"><path fill="#ffffff" d="M0 0L600.0 0L600.0 371.0L0 371.0L0 0Z" fill-rule="nonzero"/><path stroke="#333333" stroke-width="1.0" stroke-linecap="butt" d="M55.5 255.5L581.5 255.5" fill-rule="nonzero"/><path stroke="#cccccc" stroke-width="1.0" stroke-linecap="butt" d="M55.5 188.5L581.5 188.5" fill-rule="nonzero"/><path stroke="#cccccc" stroke-width="1.0" stroke-linecap="butt" d="M55.5 121.5L581.5 121.5" fill-rule="nonzero"/><path stroke="#cccccc" stroke-width="1.0" stroke-linecap="butt" d="M55.5 53.5L581.5 53.5" fill-rule="nonzero"/><clipPath id="id_0"><path d="M55.55 53.916668L581.45 53.916668L581.45 255.41699L55.55 255.41699L55.55 53.916668Z" clip-rule="nonzero"/></clipPath><path stroke="#000000" stroke-width="2.0" stroke-linecap="butt" stroke-opacity="0.0" clip-path="url(#id_0)" d="M107.0 255.0L74.0 255.0L74.0 198.0L107.0 198.0Z" fill-rule="nonzero"/><path fill="#4285f4" clip-path="url(#id_0)" d="M107.0 255.0L74.0 255.0L74.0 198.0L107.0 198.0Z" fill-rule="nonzero"/><path stroke="#000000" stroke-width="2.0" stroke-linecap="butt" stroke-opacity="0.0" clip-path="url(#id_0)" d="M158.0 255.0L125.0 255.0L125.0 187.0L158.0 187.0Z" fill-rule="nonzero"/><path fill="#4285f4" clip-path="url(#id_0)" d="M158.0 255.0L125.0 255.0L125.0 187.0L158.0 187.0Z" fill-rule="nonzero"/><path stroke="#000000" stroke-width="2.0" stroke-linecap="butt" stroke-opacity="0.0" clip-path="url(#id_0)" d="M208.0 255.0L175.0 255.0L175.0 191.0L208.0 191.0Z" fill-rule="nonzero"/><path fill="#4285f4" clip-path="url(#id_0)" d="M208.0 255.0L175.0 255.0L175.0 191.0L208.0 191.0Z" fill-rule="nonzero"/><path stroke="#000000" stroke-width="2.0" stroke-linecap="butt" stroke-opacity="0.0" clip-path="url(#id_0)" d="M259.0 255.0L226.0 255.0L226.0 176.0L259.0 176.0Z" fill-rule="nonzero"/><path fill="#4285f4" clip-path="url(#id_0)" d="M259.0 255.0L226.0 255.0L226.0 176.0L259.0 176.0Z" fill-rule="nonzero"/><path stroke="#000000" stroke-width="2.0" stroke-linecap="butt" stroke-opacity="0.0" clip-path="url(#id_0)" d="M310.0 255.0L277.0 255.0L277.0 211.0L310.0 211.0Z" fill-rule="nonzero"/><path fill="#4285f4" clip-path="url(#id_0)" d="M310.0 255.0L277.0 255.0L277.0 211.0L310.0 211.0Z" fill-rule="nonzero"/><path stroke="#000000" stroke-width="2.0" stroke-linecap="butt" stroke-opacity="0.0" clip-path="url(#id_0)" d="M361.0 255.0L328.0 255.0L328.0 191.0L361.0 191.0Z" fill-rule="nonzero"/><path fill="#4285f4" clip-path="url(#id_0)" d="M361.0 255.0L328.0 255.0L328.0 191.0L361.0 191.0Z" fill-rule="nonzero"/><path stroke="#000000" stroke-width="2.0" stroke-linecap="butt" stroke-opacity="0.0" clip-path="url(#id_0)" d="M412.0 255.0L379.0 255.0L379.0 192.0L412.0 192.0Z" fill-rule="nonzero"/><path fill="#4285f4" clip-path="url(#id_0)" d="M412.0 255.0L379.0 255.0L379.0 192.0L412.0 192.0Z" fill-rule="nonzero"/><path stroke="#000000" stroke-width="2.0" stroke-linecap="butt" stroke-opacity="0.0" clip-path="url(#id_0)" d="M463.0 255.0L430.0 255.0L430.0 189.0L463.0 189.0Z" fill-rule="nonzero"/><path fill="#4285f4" clip-path="url(#id_0)" d="M463.0 255.0L430.0 255.0L430.0 189.0L463.0 189.0Z" fill-rule="nonzero"/><path stroke="#000000" stroke-width="2.0" stroke-linecap="butt" stroke-opacity="0.0" clip-path="url(#id_0)" d="M513.0 255.0L480.0 255.0L480.0 182.0L513.0 182.0Z" fill-rule="nonzero"/><path fill="#4285f4" clip-path="url(#id_0)" d="M513.0 255.0L480.0 255.0L480.0 182.0L513.0 182.0Z" fill-rule="nonzero"/><path stroke="#000000" stroke-width="2.0" stroke-linecap="butt" stroke-opacity="0.0" clip-path="url(#id_0)" d="M564.0 255.0L531.0 255.0L531.0 187.0L564.0 187.0Z" fill-rule="nonzero"/><path fill="#4285f4" clip-path="url(#id_0)" d="M564.0 255.0L531.0 255.0L531.0 187.0L564.0 187.0Z" fill-rule="nonzero"/><path stroke="#000000" stroke-width="2.0" stroke-linecap="butt" stroke-opacity="0.0" clip-path="url(#id_0)" d="M107.0 198.0L74.0 198.0L74.0 98.0C74.0 96.89543 74.89543 96.0 76.0 96.0L105.0 96.0C106.10457 96.0 107.0 96.89543 107.0 98.0Z" fill-rule="nonzero"/><path fill="#ea4335" clip-path="url(#id_0)" d="M107.0 198.0L74.0 198.0L74.0 98.0C74.0 96.89543 74.89543 96.0 76.0 96.0L105.0 96.0C106.10457 96.0 107.0 96.89543 107.0 98.0Z" fill-rule="nonzero"/><path stroke="#000000" stroke-width="2.0" stroke-linecap="butt" stroke-opacity="0.0" clip-path="url(#id_0)" d="M158.0 187.0L125.0 187.0L125.0 88.0C125.0 86.89543 125.89543 86.0 127.0 86.0L156.0 86.0C157.10457 86.0 158.0 86.89543 158.0 88.0Z" fill-rule="nonzero"/><path fill="#ea4335" clip-path="url(#id_0)" d="M158.0 187.0L125.0 187.0L125.0 88.0C125.0 86.89543 125.89543 86.0 127.0 86.0L156.0 86.0C157.10457 86.0 158.0 86.89543 158.0 88.0Z" fill-rule="nonzero"/><path stroke="#000000" stroke-width="2.0" stroke-linecap="butt" stroke-opacity="0.0" clip-path="url(#id_0)" d="M208.0 191.0L175.0 191.0L175.0 84.0C175.0 82.89543 175.89543 82.0 177.0 82.0L206.0 82.0C207.10457 82.0 208.0 82.89543 208.0 84.0Z" fill-rule="nonzero"/><path fill="#ea4335" clip-path="url(#id_0)" d="M208.0 191.0L175.0 191.0L175.0 84.0C175.0 82.89543 175.89543 82.0 177.0 82.0L206.0 82.0C207.10457 82.0 208.0 82.89543 208.0 84.0Z" fill-rule="nonzero"/><path stroke="#000000" stroke-width="2.0" stroke-linecap="butt" stroke-opacity="0.0" clip-path="url(#id_0)" d="M259.0 176.0L226.0 176.0L226.0 62.0C226.0 60.89543 226.89543 60.0 228.0 60.0L257.0 60.0C258.10458 60.0 259.0 60.89543 259.0 62.0Z" fill-rule="nonzero"/><path fill="#ea4335" clip-path="url(#id_0)" d="M259.0 176.0L226.0 176.0L226.0 62.0C226.0 60.89543 226.89543 60.0 228.0 60.0L257.0 60.0C258.10458 60.0 259.0 60.89543 259.0 62.0Z" fill-rule="nonzero"/><path stroke="#000000" stroke-width="2.0" stroke-linecap="butt" stroke-opacity="0.0" clip-path="url(#id_0)" d="M310.0 211.0L277.0 211.0L277.0 197.0C277.0 195.89543 277.89542 195.0 279.0 195.0L308.0 195.0C309.10458 195.0 310.0 195.89543 310.0 197.0Z" fill-rule="nonzero"/><path fill="#ea4335" clip-path="url(#id_0)" d="M310.0 211.0L277.0 211.0L277.0 197.0C277.0 195.89543 277.89542 195.0 279.0 195.0L308.0 195.0C309.10458 195.0 310.0 195.89543 310.0 197.0Z" fill-rule="nonzero"/><path stroke="#000000" stroke-width="2.0" stroke-linecap="butt" stroke-opacity="0.0" clip-path="url(#id_0)" d="M361.0 191.0L328.0 191.0L328.0 69.0C328.0 67.89543 328.89542 67.0 330.0 67.0L359.0 67.0C360.10458 67.0 361.0 67.89543 361.0 69.0Z" fill-rule="nonzero"/><path fill="#ea4335" clip-path="url(#id_0)" d="M361.0 191.0L328.0 191.0L328.0 69.0C328.0 67.89543 328.89542 67.0 330.0 67.0L359.0 67.0C360.10458 67.0 361.0 67.89543 361.0 69.0Z" fill-rule="nonzero"/><path stroke="#000000" stroke-width="2.0" stroke-linecap="butt" stroke-opacity="0.0" clip-path="url(#id_0)" d="M412.0 192.0L379.0 192.0L379.0 132.0C379.0 130.89543 379.89542 130.0 381.0 130.0L410.0 130.0C411.10458 130.0 412.0 130.89543 412.0 132.0Z" fill-rule="nonzero"/><path fill="#ea4335" clip-path="url(#id_0)" d="M412.0 192.0L379.0 192.0L379.0 132.0C379.0 130.89543 379.89542 130.0 381.0 130.0L410.0 130.0C411.10458 130.0 412.0 130.89543 412.0 132.0Z" fill-rule="nonzero"/><path stroke="#000000" stroke-width="2.0" stroke-linecap="butt" stroke-opacity="0.0" clip-path="url(#id_0)" d="M463.0 189.0L430.0 189.0L430.0 179.0C430.0 177.89543 430.89542 177.0 432.0 177.0L461.0 177.0C462.10458 177.0 463.0 177.89543 463.0 179.0Z" fill-rule="nonzero"/><path fill="#ea4335" clip-path="url(#id_0)" d="M463.0 189.0L430.0 189.0L430.0 179.0C430.0 177.89543 430.89542 177.0 432.0 177.0L461.0 177.0C462.10458 177.0 463.0 177.89543 463.0 179.0Z" fill-rule="nonzero"/><path stroke="#000000" stroke-width="2.0" stroke-linecap="butt" stroke-opacity="0.0" clip-path="url(#id_0)" d="M513.0 182.0L480.0 182.0L480.0 176.0C480.0 174.89543 480.89542 174.0 482.0 174.0L511.0 174.0C512.10455 174.0 513.0 174.89543 513.0 176.0Z" fill-rule="nonzero"/><path fill="#ea4335" clip-path="url(#id_0)" d="M513.0 182.0L480.0 182.0L480.0 176.0C480.0 174.89543 480.89542 174.0 482.0 174.0L511.0 174.0C512.10455 174.0 513.0 174.89543 513.0 176.0Z" fill-rule="nonzero"/><path stroke="#000000" stroke-width="2.0" stroke-linecap="butt" stroke-opacity="0.0" clip-path="url(#id_0)" d="M564.0 187.0L531.0 187.0L531.0 183.0C531.0 181.89543 531.89545 181.0 533.0 181.0L562.0 181.0C563.10455 181.0 564.0 181.89543 564.0 183.0Z" fill-rule="nonzero"/><path fill="#ea4335" clip-path="url(#id_0)" d="M564.0 187.0L531.0 187.0L531.0 183.0C531.0 181.89543 531.89545 181.0 533.0 181.0L562.0 181.0C563.10455 181.0 564.0 181.89543 564.0 183.0Z" fill-rule="nonzero"/><path fill="#000000" d="M293.48438 349.45L293.48438 339.4344L296.51562 339.4344L298.34375 346.2625L300.14062 339.4344L303.17188 339.4344L303.17188 349.45L301.29688 349.45L301.29688 341.5594L299.29688 349.45L297.35938 349.45L295.375 341.5594L295.375 349.45L293.48438 349.45ZM309.70312 347.1375L311.625 347.46564Q311.25 348.5125 310.45312 349.075Q309.65625 349.6219 308.46875 349.6219Q306.57812 349.6219 305.65625 348.3719Q304.9375 347.3875 304.9375 345.8719Q304.9375 344.075 305.875 343.0594Q306.82812 342.02814 308.28125 342.02814Q309.89062 342.02814 310.82812 343.10626Q311.76562 344.16876 311.71875 346.3719L306.90625 346.3719Q306.9375 347.23126 307.375 347.71564Q307.82812 348.1844 308.48438 348.1844Q308.9375 348.1844 309.23438 347.9344Q309.54688 347.6844 309.70312 347.1375ZM309.8125 345.2Q309.79688 344.35626 309.39062 343.9344Q308.98438 343.4969 308.39062 343.4969Q307.76562 343.4969 307.34375 343.95Q306.9375 344.41876 306.95312 345.2L309.8125 345.2ZM316.82812 342.1844L316.82812 343.71564L315.51562 343.71564L315.51562 346.65314Q315.51562 347.52814 315.54688 347.6844Q315.59375 347.825 315.71875 347.9344Q315.85938 348.02814 316.0625 348.02814Q316.32812 348.02814 316.82812 347.84064L316.98438 349.325Q316.32812 349.6219 315.46875 349.6219Q314.95312 349.6219 314.53125 349.45Q314.125 349.2625 313.92188 348.9969Q313.73438 348.71564 313.65625 348.2469Q313.59375 347.90314 313.59375 346.8875L313.59375 343.71564L312.71875 343.71564L312.71875 342.1844L313.59375 342.1844L313.59375 340.7469L315.51562 339.6219L315.51562 342.1844L316.82812 342.1844ZM320.42188 339.4344L320.42188 343.10626Q321.34375 342.02814 322.64062 342.02814Q323.29688 342.02814 323.82812 342.27814Q324.375 342.5125 324.64062 342.90314Q324.90625 343.27814 325.0 343.7469Q325.10938 344.21564 325.10938 345.1844L325.10938 349.45L323.1875 349.45L323.1875 345.6219Q323.1875 344.46564 323.07812 344.16876Q322.96875 343.85626 322.6875 343.6844Q322.42188 343.4969 322.0 343.4969Q321.51562 343.4969 321.14062 343.73126Q320.76562 343.96564 320.59375 344.4344Q320.42188 344.90314 320.42188 345.8094L320.42188 349.45L318.5 349.45L318.5 339.4344L320.42188 339.4344ZM327.0625 345.71564Q327.0625 344.7625 327.53125 343.8719Q328.0 342.96564 328.85938 342.4969Q329.73438 342.02814 330.79688 342.02814Q332.45312 342.02814 333.5 343.10626Q334.54688 344.16876 334.54688 345.79376Q334.54688 347.45 333.48438 348.54376Q332.42188 349.6219 330.8125 349.6219Q329.8125 349.6219 328.90625 349.16876Q328.0 348.71564 327.53125 347.84064Q327.0625 346.96564 327.0625 345.71564ZM329.03125 345.825Q329.03125 346.90314 329.54688 347.48126Q330.0625 348.04376 330.8125 348.04376Q331.5625 348.04376 332.0625 347.48126Q332.57812 346.90314 332.57812 345.8094Q332.57812 344.7469 332.0625 344.16876Q331.5625 343.59064 330.8125 343.59064Q330.0625 343.59064 329.54688 344.16876Q329.03125 344.7469 329.03125 345.825ZM343.15625 349.45L341.375 349.45L341.375 348.3875Q340.9375 349.0125 340.32812 349.325Q339.71875 349.6219 339.10938 349.6219Q337.85938 349.6219 336.96875 348.60626Q336.07812 347.59064 336.07812 345.79376Q336.07812 343.95 336.9375 342.9969Q337.8125 342.02814 339.14062 342.02814Q340.35938 342.02814 341.25 343.04376L341.25 339.4344L343.15625 339.4344L343.15625 349.45ZM338.03125 345.66876Q338.03125 346.825 338.35938 347.34064Q338.82812 348.09064 339.65625 348.09064Q340.3125 348.09064 340.78125 347.52814Q341.25 346.96564 341.25 345.84064Q341.25 344.59064 340.79688 344.04376Q340.34375 343.4969 339.64062 343.4969Q338.95312 343.4969 338.48438 344.04376Q338.03125 344.575 338.03125 345.66876Z" fill-rule="nonzero"/><path fill="#000000" d="M26.05 255.18262Q26.05 253.65137 26.3625 252.72949Q26.675 251.79199 27.284374 251.29199Q27.909374 250.79199 28.846874 250.79199Q29.534374 250.79199 30.05 251.07324Q30.58125 251.35449 30.925 251.88574Q31.26875 252.40137 31.45625 253.15137Q31.64375 253.90137 31.64375 255.18262Q31.64375 256.69824 31.33125 257.62012Q31.034374 258.542 30.409374 259.05762Q29.8 259.55762 28.846874 259.55762Q27.6125 259.55762 26.89375 258.667Q26.05 257.6045 26.05 255.18262ZM27.128124 255.18262Q27.128124 257.292 27.628124 257.99512Q28.128124 258.69824 28.846874 258.69824Q29.58125 258.69824 30.065624 257.99512Q30.565624 257.292 30.565624 255.18262Q30.565624 253.05762 30.065624 252.37012Q29.58125 251.66699 28.83125 251.66699Q28.1125 251.66699 27.675 252.27637Q27.128124 253.05762 27.128124 255.18262ZM33.64375 259.417L33.64375 258.21387L34.846874 258.21387L34.846874 259.417L33.64375 259.417ZM36.05 255.18262Q36.05 253.65137 36.3625 252.72949Q36.675 251.79199 37.284374 251.29199Q37.909374 250.79199 38.846874 250.79199Q39.534374 250.79199 40.05 251.07324Q40.58125 251.35449 40.925 251.88574Q41.26875 252.40137 41.45625 253.15137Q41.64375 253.90137 41.64375 255.18262Q41.64375 256.69824 41.33125 257.62012Q41.034374 258.542 40.409374 259.05762Q39.8 259.55762 38.846874 259.55762Q37.6125 259.55762 36.89375 258.667Q36.05 257.6045 36.05 255.18262ZM37.128124 255.18262Q37.128124 257.292 37.628124 257.99512Q38.128124 258.69824 38.846874 258.69824Q39.58125 258.69824 40.065624 257.99512Q40.565624 257.292 40.565624 255.18262Q40.565624 253.05762 40.065624 252.37012Q39.58125 251.66699 38.83125 251.66699Q38.1125 251.66699 37.675 252.27637Q37.128124 253.05762 37.128124 255.18262ZM43.05 255.18262Q43.05 253.65137 43.3625 252.72949Q43.675 251.79199 44.284374 251.29199Q44.909374 250.79199 45.846874 250.79199Q46.534374 250.79199 47.05 251.07324Q47.58125 251.35449 47.925 251.88574Q48.26875 252.40137 48.45625 253.15137Q48.64375 253.90137 48.64375 255.18262Q48.64375 256.69824 48.33125 257.62012Q48.034374 258.542 47.409374 259.05762Q46.8 259.55762 45.846874 259.55762Q44.6125 259.55762 43.89375 258.667Q43.05 257.6045 43.05 255.18262ZM44.128124 255.18262Q44.128124 257.292 44.628124 257.99512Q45.128124 258.69824 45.846874 258.69824Q46.58125 258.69824 47.065624 257.99512Q47.565624 257.292 47.565624 255.18262Q47.565624 253.05762 47.065624 252.37012Q46.58125 251.66699 45.83125 251.66699Q45.1125 251.66699 44.675 252.27637Q44.128124 253.05762 44.128124 255.18262Z" fill-rule="nonzero"/><path fill="#000000" d="M24.596874 191.23459L24.596874 192.25021L18.909374 192.25021Q18.909374 191.87521 19.034374 191.51584Q19.253124 190.93771 19.721874 190.37521Q20.20625 189.81271 21.1125 189.07834Q22.51875 187.92209 23.003124 187.25021Q23.503124 186.57834 23.503124 185.98459Q23.503124 185.35959 23.05 184.93771Q22.596874 184.50021 21.878124 184.50021Q21.1125 184.50021 20.659374 184.95334Q20.20625 185.40646 20.190624 186.21896L19.1125 186.10959Q19.221874 184.89084 19.940624 184.26584Q20.675 183.62521 21.909374 183.62521Q23.14375 183.62521 23.8625 184.31271Q24.58125 185.00021 24.58125 186.01584Q24.58125 186.53146 24.3625 187.03146Q24.159374 187.51584 23.659374 188.07834Q23.175 188.62521 22.05 189.57834Q21.096874 190.37521 20.815624 190.67209Q20.55 190.95334 20.378124 191.23459L24.596874 191.23459ZM26.05 188.01584Q26.05 186.48459 26.3625 185.56271Q26.675 184.62521 27.284374 184.12521Q27.909374 183.62521 28.846874 183.62521Q29.534374 183.62521 30.05 183.90646Q30.58125 184.18771 30.925 184.71896Q31.26875 185.23459 31.45625 185.98459Q31.64375 186.73459 31.64375 188.01584Q31.64375 189.53146 31.33125 190.45334Q31.034374 191.37521 30.409374 191.89084Q29.8 192.39084 28.846874 192.39084Q27.6125 192.39084 26.89375 191.50021Q26.05 190.43771 26.05 188.01584ZM27.128124 188.01584Q27.128124 190.12521 27.628124 190.82834Q28.128124 191.53146 28.846874 191.53146Q29.58125 191.53146 30.065624 190.82834Q30.565624 190.12521 30.565624 188.01584Q30.565624 185.89084 30.065624 185.20334Q29.58125 184.50021 28.83125 184.50021Q28.1125 184.50021 27.675 185.10959Q27.128124 185.89084 27.128124 188.01584ZM33.64375 192.25021L33.64375 191.04709L34.846874 191.04709L34.846874 192.25021L33.64375 192.25021ZM36.05 188.01584Q36.05 186.48459 36.3625 185.56271Q36.675 184.62521 37.284374 184.12521Q37.909374 183.62521 38.846874 183.62521Q39.534374 183.62521 40.05 183.90646Q40.58125 184.18771 40.925 184.71896Q41.26875 185.23459 41.45625 185.98459Q41.64375 186.73459 41.64375 188.01584Q41.64375 189.53146 41.33125 190.45334Q41.034374 191.37521 40.409374 191.89084Q39.8 192.39084 38.846874 192.39084Q37.6125 192.39084 36.89375 191.50021Q36.05 190.43771 36.05 188.01584ZM37.128124 188.01584Q37.128124 190.12521 37.628124 190.82834Q38.128124 191.53146 38.846874 191.53146Q39.58125 191.53146 40.065624 190.82834Q40.565624 190.12521 40.565624 188.01584Q40.565624 185.89084 40.065624 185.20334Q39.58125 184.50021 38.83125 184.50021Q38.1125 184.50021 37.675 185.10959Q37.128124 185.89084 37.128124 188.01584ZM43.05 188.01584Q43.05 186.48459 43.3625 185.56271Q43.675 184.62521 44.284374 184.12521Q44.909374 183.62521 45.846874 183.62521Q46.534374 183.62521 47.05 183.90646Q47.58125 184.18771 47.925 184.71896Q48.26875 185.23459 48.45625 185.98459Q48.64375 186.73459 48.64375 188.01584Q48.64375 189.53146 48.33125 190.45334Q48.034374 191.37521 47.409374 191.89084Q46.8 192.39084 45.846874 192.39084Q44.6125 192.39084 43.89375 191.50021Q43.05 190.43771 43.05 188.01584ZM44.128124 188.01584Q44.128124 190.12521 44.628124 190.82834Q45.128124 191.53146 45.846874 191.53146Q46.58125 191.53146 47.065624 190.82834Q47.565624 190.12521 47.565624 188.01584Q47.565624 185.89084 47.065624 185.20334Q46.58125 184.50021 45.83125 184.50021Q45.1125 184.50021 44.675 185.10959Q44.128124 185.89084 44.128124 188.01584Z" fill-rule="nonzero"/><path fill="#000000" d="M22.425 125.08344L22.425 123.02094L18.70625 123.02094L18.70625 122.05219L22.628124 116.48969L23.4875 116.48969L23.4875 122.05219L24.64375 122.05219L24.64375 123.02094L23.4875 123.02094L23.4875 125.08344L22.425 125.08344ZM22.425 122.05219L22.425 118.19282L19.7375 122.05219L22.425 122.05219ZM26.05 120.84907Q26.05 119.31782 26.3625 118.39594Q26.675 117.45844 27.284374 116.95844Q27.909374 116.45844 28.846874 116.45844Q29.534374 116.45844 30.05 116.73969Q30.58125 117.02094 30.925 117.55219Q31.26875 118.06782 31.45625 118.81782Q31.64375 119.56782 31.64375 120.84907Q31.64375 122.36469 31.33125 123.28657Q31.034374 124.20844 30.409374 124.72407Q29.8 125.22407 28.846874 125.22407Q27.6125 125.22407 26.89375 124.33344Q26.05 123.27094 26.05 120.84907ZM27.128124 120.84907Q27.128124 122.95844 27.628124 123.66157Q28.128124 124.36469 28.846874 124.36469Q29.58125 124.36469 30.065624 123.66157Q30.565624 122.95844 30.565624 120.84907Q30.565624 118.72407 30.065624 118.03657Q29.58125 117.33344 28.83125 117.33344Q28.1125 117.33344 27.675 117.94282Q27.128124 118.72407 27.128124 120.84907ZM33.64375 125.08344L33.64375 123.88032L34.846874 123.88032L34.846874 125.08344L33.64375 125.08344ZM36.05 120.84907Q36.05 119.31782 36.3625 118.39594Q36.675 117.45844 37.284374 116.95844Q37.909374 116.45844 38.846874 116.45844Q39.534374 116.45844 40.05 116.73969Q40.58125 117.02094 40.925 117.55219Q41.26875 118.06782 41.45625 118.81782Q41.64375 119.56782 41.64375 120.84907Q41.64375 122.36469 41.33125 123.28657Q41.034374 124.20844 40.409374 124.72407Q39.8 125.22407 38.846874 125.22407Q37.6125 125.22407 36.89375 124.33344Q36.05 123.27094 36.05 120.84907ZM37.128124 120.84907Q37.128124 122.95844 37.628124 123.66157Q38.128124 124.36469 38.846874 124.36469Q39.58125 124.36469 40.065624 123.66157Q40.565624 122.95844 40.565624 120.84907Q40.565624 118.72407 40.065624 118.03657Q39.58125 117.33344 38.83125 117.33344Q38.1125 117.33344 37.675 117.94282Q37.128124 118.72407 37.128124 120.84907ZM43.05 120.84907Q43.05 119.31782 43.3625 118.39594Q43.675 117.45844 44.284374 116.95844Q44.909374 116.45844 45.846874 116.45844Q46.534374 116.45844 47.05 116.73969Q47.58125 117.02094 47.925 117.55219Q48.26875 118.06782 48.45625 118.81782Q48.64375 119.56782 48.64375 120.84907Q48.64375 122.36469 48.33125 123.28657Q48.034374 124.20844 47.409374 124.72407Q46.8 125.22407 45.846874 125.22407Q44.6125 125.22407 43.89375 124.33344Q43.05 123.27094 43.05 120.84907ZM44.128124 120.84907Q44.128124 122.95844 44.628124 123.66157Q45.128124 124.36469 45.846874 124.36469Q46.58125 124.36469 47.065624 123.66157Q47.565624 122.95844 47.565624 120.84907Q47.565624 118.72407 47.065624 118.03657Q46.58125 117.33344 45.83125 117.33344Q45.1125 117.33344 44.675 117.94282Q44.128124 118.72407 44.128124 120.84907Z" fill-rule="nonzero"/><path fill="#000000" d="M24.51875 51.432293L23.471874 51.510418Q23.33125 50.885418 23.08125 50.604168Q22.64375 50.151043 22.01875 50.151043Q21.51875 50.151043 21.128124 50.432293Q20.64375 50.807293 20.346874 51.510418Q20.065624 52.197918 20.05 53.479168Q20.425 52.901043 20.971874 52.619793Q21.534374 52.338543 22.14375 52.338543Q23.190624 52.338543 23.925 53.119793Q24.675 53.901043 24.675 55.119793Q24.675 55.932293 24.315624 56.635418Q23.971874 57.322918 23.3625 57.697918Q22.753124 58.057293 21.9875 58.057293Q20.659374 58.057293 19.83125 57.088543Q19.003124 56.119793 19.003124 53.901043Q19.003124 51.401043 19.925 50.276043Q20.721874 49.291668 22.08125 49.291668Q23.096874 49.291668 23.7375 49.869793Q24.39375 50.432293 24.51875 51.432293ZM20.221874 55.135418Q20.221874 55.682293 20.440624 56.182293Q20.675 56.666668 21.08125 56.932293Q21.503124 57.197918 21.971874 57.197918Q22.628124 57.197918 23.1125 56.666668Q23.596874 56.119793 23.596874 55.197918Q23.596874 54.307293 23.1125 53.791668Q22.64375 53.276043 21.925 53.276043Q21.20625 53.276043 20.70625 53.791668Q20.221874 54.307293 20.221874 55.135418ZM26.05 53.682293Q26.05 52.151043 26.3625 51.229168Q26.675 50.291668 27.284374 49.791668Q27.909374 49.291668 28.846874 49.291668Q29.534374 49.291668 30.05 49.572918Q30.58125 49.854168 30.925 50.385418Q31.26875 50.901043 31.45625 51.651043Q31.64375 52.401043 31.64375 53.682293Q31.64375 55.197918 31.33125 56.119793Q31.034374 57.041668 30.409374 57.557293Q29.8 58.057293 28.846874 58.057293Q27.6125 58.057293 26.89375 57.166668Q26.05 56.104168 26.05 53.682293ZM27.128124 53.682293Q27.128124 55.791668 27.628124 56.494793Q28.128124 57.197918 28.846874 57.197918Q29.58125 57.197918 30.065624 56.494793Q30.565624 55.791668 30.565624 53.682293Q30.565624 51.557293 30.065624 50.869793Q29.58125 50.166668 28.83125 50.166668Q28.1125 50.166668 27.675 50.776043Q27.128124 51.557293 27.128124 53.682293ZM33.64375 57.916668L33.64375 56.713543L34.846874 56.713543L34.846874 57.916668L33.64375 57.916668ZM36.05 53.682293Q36.05 52.151043 36.3625 51.229168Q36.675 50.291668 37.284374 49.791668Q37.909374 49.291668 38.846874 49.291668Q39.534374 49.291668 40.05 49.572918Q40.58125 49.854168 40.925 50.385418Q41.26875 50.901043 41.45625 51.651043Q41.64375 52.401043 41.64375 53.682293Q41.64375 55.197918 41.33125 56.119793Q41.034374 57.041668 40.409374 57.557293Q39.8 58.057293 38.846874 58.057293Q37.6125 58.057293 36.89375 57.166668Q36.05 56.104168 36.05 53.682293ZM37.128124 53.682293Q37.128124 55.791668 37.628124 56.494793Q38.128124 57.197918 38.846874 57.197918Q39.58125 57.197918 40.065624 56.494793Q40.565624 55.791668 40.565624 53.682293Q40.565624 51.557293 40.065624 50.869793Q39.58125 50.166668 38.83125 50.166668Q38.1125 50.166668 37.675 50.776043Q37.128124 51.557293 37.128124 53.682293ZM43.05 53.682293Q43.05 52.151043 43.3625 51.229168Q43.675 50.291668 44.284374 49.791668Q44.909374 49.291668 45.846874 49.291668Q46.534374 49.291668 47.05 49.572918Q47.58125 49.854168 47.925 50.385418Q48.26875 50.901043 48.45625 51.651043Q48.64375 52.401043 48.64375 53.682293Q48.64375 55.197918 48.33125 56.119793Q48.034374 57.041668 47.409374 57.557293Q46.8 58.057293 45.846874 58.057293Q44.6125 58.057293 43.89375 57.166668Q43.05 56.104168 43.05 53.682293ZM44.128124 53.682293Q44.128124 55.791668 44.628124 56.494793Q45.128124 57.197918 45.846874 57.197918Q46.58125 57.197918 47.065624 56.494793Q47.565624 55.791668 47.565624 53.682293Q47.565624 51.557293 47.065624 50.869793Q46.58125 50.166668 45.83125 50.166668Q45.1125 50.166668 44.675 50.776043Q44.128124 51.557293 44.128124 53.682293Z" fill-rule="nonzero"/><path fill="#000000" d="M64.44722 306.20236L57.420345 299.17548L58.845608 297.7502L64.67924 303.58386L68.23687 300.0262L69.430115 301.21948L64.44722 306.20236ZM63.68487 292.80048L66.29233 290.19302Q67.187256 289.2981 67.78388 288.96664Q68.57938 288.5247 69.49641 288.55783Q70.40238 288.57993 71.31941 289.03293Q72.225395 289.47488 73.219765 290.46924Q74.103645 291.35312 74.52349 292.1928Q75.03172 293.23138 75.00963 294.20364Q74.99858 294.9439 74.56769 295.77255Q74.24728 296.4023 73.45178 297.1978L70.76698 299.8826L63.68487 292.80048ZM66.303375 292.56845L70.99901 297.2641L72.07072 296.19238Q72.667336 295.59576 72.86621 295.2643Q73.13138 294.82236 73.142426 294.39148Q73.16452 293.94952 72.83306 293.3308Q72.51266 292.70105 71.69506 291.88345Q70.866425 291.0548 70.28085 290.7786Q69.695274 290.4803 69.18704 290.50238Q68.67881 290.50238 68.19267 290.81174Q67.82807 291.04376 66.94419 291.92764L66.303375 292.56845ZM84.23516 286.41443L82.677315 287.97226L80.44551 286.9779L77.60603 289.81738L78.63355 292.01602L77.119896 293.5297L72.79992 283.68542L74.31357 282.17178L84.23516 286.41443ZM78.78823 286.2487L75.1864 284.5914L76.85474 288.1822L78.78823 286.2487ZM84.887024 285.76257L77.80491 278.68045L79.948326 276.53702L86.06922 280.07257L82.51159 273.97375L84.65501 271.83035L91.73712 278.91248L90.41129 280.23828L84.83178 274.65878L88.997086 281.6525L87.62707 283.02252L80.64439 278.84616L86.2239 284.4257L84.887024 285.76257ZM93.3944 277.2552L86.31229 270.17307L88.61038 267.87497Q89.914116 266.57123 90.41129 266.27292Q91.18469 265.831 92.12382 265.9525Q93.074 266.06302 93.924736 266.91376Q94.5766 267.5656 94.775475 268.2506Q94.9854 268.9246 94.87491 269.5433Q94.76442 270.16202 94.46611 270.63712Q94.05732 271.24478 93.085045 272.21704L92.15697 273.1451L94.83071 275.81888L93.3944 277.2552ZM88.94184 269.93L90.952675 271.94083L91.73712 271.15637Q92.57681 270.31668 92.753586 269.91895Q92.93037 269.5212 92.85303 269.1345Q92.77569 268.7257 92.466324 268.41635Q92.07963 268.02963 91.59349 268.00754Q91.1184 267.9744 90.69856 268.26166Q90.400246 268.4716 89.626854 269.245L88.94184 269.93Z" fill-rule="nonzero"/><path fill="#000000" d="M108.09936 313.36182L101.01724 306.2797L102.45355 304.84338L109.53567 311.9255L108.09936 313.36182ZM108.29823 308.54465L109.55776 307.01996Q110.386406 307.58344 111.09351 307.53925Q111.81167 307.484 112.46353 306.83212Q113.15959 306.13608 113.21483 305.50632Q113.27007 304.85443 112.88338 304.46774Q112.62926 304.21362 112.30885 304.18048Q111.98844 304.14734 111.48021 304.3904Q111.14876 304.54507 110.03285 305.21906Q108.59654 306.08084 107.72371 306.13608Q106.48627 306.20236 105.646576 305.36267Q105.1052 304.8213 104.92842 304.0479Q104.762695 303.26346 105.094154 302.44586Q105.43666 301.61722 106.25425 300.79962Q107.58008 299.47382 108.83961 299.3854Q110.099144 299.29703 111.11561 300.2251L109.74559 301.7277Q109.104774 301.26367 108.56339 301.341Q108.02202 301.39624 107.414345 302.0039Q106.79563 302.62265 106.69619 303.23032Q106.6299 303.62805 106.90611 303.90427Q107.16023 304.1584 107.557976 304.1142Q108.04411 304.07 109.33679 303.28555Q110.62947 302.479 111.39182 302.24698Q112.16522 302.0039 112.894424 302.1807Q113.634674 302.34644 114.30864 303.0204Q114.916306 303.62805 115.11518 304.51193Q115.31406 305.37372 114.949455 306.24655Q114.584854 307.1194 113.65678 308.0475Q112.30885 309.3954 110.97198 309.49484Q109.6351 309.59427 108.29823 308.54465ZM118.93798 302.5232L113.0491 296.63434L110.938835 298.7446L109.74559 297.55136L115.38035 291.9166L116.573586 293.10983L114.474365 295.20908L120.36324 301.09793L118.93798 302.5232ZM130.097 291.36417L128.53915 292.92203L126.30736 291.92764L123.46788 294.76712L124.49539 296.9658L122.98174 298.47943L118.661766 288.6352L120.175415 287.12152L130.097 291.36417ZM124.65008 291.19846L121.04825 289.54117L122.716576 293.13193L124.65008 291.19846ZM128.71594 288.96664L127.356964 287.60767L130.03072 284.93393L131.38968 286.29288L128.71594 288.96664ZM134.3286 287.13257L127.24648 280.05048L128.6386 278.65836L136.2621 280.4924L131.53331 275.76364L132.85915 274.4378L139.94125 281.51993L138.50494 282.95624L131.03613 281.18848L135.65442 285.80676L134.3286 287.13257ZM142.7034 275.48743L144.29439 274.36047Q144.76947 275.36588 144.60374 276.32712Q144.42697 277.27728 143.58728 278.11697Q142.2504 279.45383 140.71466 279.22183Q139.51036 279.034 138.43866 277.96228Q137.16808 276.6917 137.11284 275.31064Q137.05759 273.90747 138.0851 272.87994Q139.2231 271.74194 140.64836 271.8414Q142.06258 271.92978 143.58728 273.52078L140.18433 276.92374Q140.81409 277.5093 141.46596 277.54245Q142.11783 277.5535 142.58186 277.08945Q142.90227 276.76904 142.93541 276.38235Q142.97961 275.9846 142.7034 275.48743ZM141.41072 274.04007Q140.80304 273.45447 140.21747 273.44342Q139.62085 273.42133 139.201 273.8412Q138.75906 274.2831 138.78116 274.90186Q138.82536 275.52057 139.38882 276.06195L141.41072 274.04007ZM144.23914 266.9469L145.3219 268.02963L144.39381 268.95773L146.47095 271.03485Q147.08966 271.65356 147.22224 271.74194Q147.35483 271.80826 147.52055 271.7972Q147.6863 271.76407 147.82993 271.62042Q148.01775 271.4326 148.23871 270.94647L149.39882 271.8856Q149.1447 272.55954 148.53702 273.1672Q148.17242 273.53183 147.75258 273.7086Q147.33273 273.86328 147.00128 273.8191Q146.66982 273.7528 146.28313 273.4766Q145.99586 273.2777 145.27771 272.55954L143.03485 270.31668L142.41614 270.93542L141.33337 269.85266L141.95209 269.23395L140.93562 268.21747L141.4991 266.06302L143.31107 267.87497L144.23914 266.9469Z" fill-rule="nonzero"/><path fill="#000000" d="M167.95972 299.09814L169.78271 298.15903Q170.6224 299.63953 170.44563 300.94327Q170.26886 302.24698 169.13086 303.38498Q167.71664 304.7992 165.8384 304.755Q163.96014 304.68872 162.29181 303.0204Q160.52405 301.25262 160.4688 299.3633Q160.40251 297.46295 161.89406 295.9714Q163.18674 294.67874 164.76668 294.62347Q165.70581 294.59033 166.78856 295.20905L165.71686 296.9658Q165.0429 296.53488 164.32474 296.6122Q163.60658 296.68958 163.03206 297.2641Q162.24762 298.04852 162.32495 299.12024Q162.4023 300.16986 163.66183 301.42938Q165.00975 302.7773 166.05936 302.87674Q167.10898 302.9541 167.88237 302.1807Q168.4569 301.60617 168.51215 300.8438Q168.55634 300.07043 167.95972 299.09814ZM170.42354 297.23096L171.68307 295.70624Q172.51172 296.2697 173.21881 296.22552Q173.93697 296.1703 174.58884 295.51843Q175.2849 294.82236 175.34013 294.1926Q175.39539 293.54074 175.00868 293.15402Q174.75456 292.8999 174.43416 292.86676Q174.11375 292.83362 173.60551 293.0767Q173.27406 293.23138 172.15816 293.90533Q170.72185 294.76712 169.84901 294.82236Q168.61157 294.88864 167.77188 294.04895Q167.23051 293.5076 167.05373 292.7342Q166.888 291.94974 167.21945 291.13214Q167.56197 290.3035 168.37956 289.4859Q169.70538 288.1601 170.96492 288.07172Q172.22446 287.9833 173.24092 288.91138L171.8709 290.414Q171.23009 289.94995 170.6887 290.02728Q170.14732 290.08255 169.53966 290.69022Q168.92093 291.30893 168.8215 291.9166Q168.7552 292.31433 169.03142 292.59055Q169.28554 292.84467 169.68329 292.80048Q170.16942 292.7563 171.4621 291.97183Q172.75478 291.16528 173.51714 290.9333Q174.29053 290.69022 175.01973 290.86697Q175.75998 291.0327 176.43394 291.70667Q177.04161 292.31433 177.2405 293.1982Q177.43936 294.06 177.07475 294.93286Q176.71016 295.8057 175.78207 296.73376Q174.43416 298.0817 173.09729 298.18112Q171.7604 298.28055 170.42354 297.23096ZM180.1573 286.90054L178.96407 285.7073L182.0466 282.62476L184.87503 285.4532Q184.85294 286.33707 184.33365 287.5193Q183.81438 288.70148 182.93048 289.58536Q181.82564 290.69022 180.53296 291.0548Q179.22923 291.40836 177.9476 290.96643Q176.66597 290.50238 175.64949 289.4859Q174.54465 288.38107 174.1469 287.05524Q173.74915 285.7294 174.19109 284.3815Q174.52255 283.34293 175.52797 282.3375Q176.85379 281.0117 178.14647 280.82385Q179.43915 280.63602 180.62134 281.39838L179.47229 283.07776Q178.79834 282.71317 178.08017 282.8347Q177.36201 282.93414 176.7433 283.55286Q175.81523 284.48093 175.84837 285.64102Q175.89256 286.79007 177.0637 287.9612Q178.32324 289.22076 179.5165 289.28705Q180.70973 289.35333 181.6157 288.44736Q182.0687 287.99435 182.34491 287.3646Q182.62112 286.73483 182.69847 286.17136L181.79248 285.26538L180.1573 286.90054ZM193.63652 278.63623L192.07867 280.1941L189.84688 279.1997L187.0074 282.03918L188.03491 284.23785L186.52127 285.7515L182.20128 275.90726L183.71494 274.39362L193.63652 278.63623ZM188.18959 278.47052L184.58777 276.81323L186.2561 280.40402L188.18959 278.47052ZM194.33258 277.9402L187.25047 270.85806L188.64258 269.46594L196.26608 271.30002L191.53731 266.57123L192.86313 265.24542L199.94525 272.3275L198.50894 273.76382L191.04012 271.99606L195.65842 276.61435L194.33258 277.9402Z" fill-rule="nonzero"/><path fill="#000000" d="M211.22514 311.85922L204.19827 304.83234L205.62354 303.40707L211.45717 309.24072L215.0148 305.68307L216.20804 306.87634L211.22514 311.85922ZM223.94202 299.14233L222.38417 300.7002L220.15237 299.7058L217.3129 302.5453L218.34041 304.74396L216.82675 306.2576L212.50677 296.41336L214.02043 294.89972L223.94202 299.14233ZM218.49509 298.97662L214.89326 297.31934L216.56158 300.91013L218.49509 298.97662ZM224.61598 298.46838L217.53386 291.38626L219.83195 289.08817Q221.13568 287.78445 221.63287 287.48615Q222.40627 287.0442 223.3454 287.16574Q224.29558 287.2762 225.1463 288.12695Q225.79817 288.7788 225.99704 289.46384Q226.20697 290.1378 226.09648 290.7565Q225.986 291.3752 225.68768 291.8503Q225.27888 292.45798 224.30663 293.43024L223.37854 294.35834L226.05229 297.03207L224.61598 298.46838ZM220.16342 291.1432L222.17426 293.15405L222.9587 292.3696Q223.79839 291.5299 223.97516 291.13214Q224.15193 290.7344 224.0746 290.34772Q223.99725 289.9389 223.6879 289.62955Q223.30121 289.24286 222.81506 289.22076Q222.33998 289.18762 221.92014 289.47488Q221.62183 289.68478 220.84842 290.4582L220.16342 291.1432ZM230.99098 292.09338L223.90887 285.01126L226.91408 282.00607Q228.05208 280.86807 228.74814 280.54764Q229.45525 280.2162 230.26178 280.40402Q231.05728 280.5808 231.676 281.19952Q232.48254 282.00607 232.52673 283.00043Q232.58199 283.98373 231.78648 285.0444Q232.51569 284.84552 233.14545 284.8787Q233.77522 284.88974 235.11209 285.21014L237.35495 285.72943L235.64243 287.44196L233.06812 286.92267Q231.69809 286.6575 231.27824 286.6575Q230.8584 286.6354 230.54904 286.79007Q230.23969 286.92267 229.74251 287.41983L229.45525 287.7071L232.41624 290.66812L230.99098 292.09338ZM228.3283 286.58017L229.38895 285.5195Q230.41646 284.49197 230.5822 284.14948Q230.75897 283.79593 230.69267 283.44238Q230.62639 283.0888 230.30598 282.7684Q229.94138 282.4038 229.53258 282.39276Q229.12378 282.35962 228.71498 282.63583Q228.51611 282.7905 227.64328 283.66333L226.52737 284.77924L228.3283 286.58017ZM244.44812 278.63623L242.89027 280.1941L240.65846 279.19974L237.81898 282.0392L238.8465 284.23785L237.33286 285.75153L233.01288 275.90726L234.52652 274.39362L244.44812 278.63623ZM239.00117 278.47052L235.39935 276.81323L237.06769 280.40402L239.00117 278.47052ZM245.14418 277.9402L238.06207 270.85806L239.45418 269.46594L247.07768 271.30002L242.3489 266.57123L243.67473 265.2454L250.75684 272.3275L249.32053 273.76382L241.85172 271.99606L246.47 276.61435L245.14418 277.9402Z" fill-rule="nonzero"/><path fill="#000000" d="M275.23975 293.44128L277.06277 292.50217Q277.90244 293.98267 277.72568 295.2864Q277.5489 296.59012 276.4109 297.72812Q274.99667 299.14233 273.11844 299.09814Q271.24017 299.03186 269.57184 297.36353Q267.80408 295.59576 267.74884 293.70645Q267.68256 291.80612 269.1741 290.31454Q270.46677 289.02188 272.04672 288.96664Q272.98584 288.9335 274.0686 289.55222L272.9969 291.30893Q272.32294 290.87802 271.60477 290.95538Q270.88663 291.0327 270.3121 291.60724Q269.52765 292.3917 269.60498 293.46338Q269.68234 294.513 270.94186 295.77255Q272.2898 297.12045 273.33942 297.2199Q274.389 297.29724 275.1624 296.52383Q275.73694 295.9493 275.79218 295.18698Q275.83636 294.41357 275.23975 293.44128ZM277.70358 291.5741L278.9631 290.0494Q279.79175 290.61288 280.49887 290.56866Q281.217 290.51343 281.86887 289.86157Q282.56494 289.1655 282.62018 288.53574Q282.6754 287.88388 282.28873 287.4972Q282.0346 287.24307 281.7142 287.20993Q281.3938 287.17676 280.88556 287.41983Q280.5541 287.57452 279.4382 288.24847Q278.0019 289.11026 277.12906 289.1655Q275.8916 289.2318 275.05194 288.39212Q274.51056 287.85074 274.33377 287.07733Q274.16803 286.29288 274.4995 285.4753Q274.842 284.64667 275.6596 283.82907Q276.9854 282.50323 278.24496 282.41486Q279.5045 282.32648 280.52097 283.25455L279.15094 284.75714Q278.51013 284.2931 277.96875 284.37045Q277.42737 284.4257 276.8197 285.03336Q276.201 285.65207 276.10153 286.25974Q276.03525 286.6575 276.31146 286.93372Q276.56558 287.18784 276.96332 287.14362Q277.44946 287.09943 278.74213 286.31497Q280.03482 285.50845 280.79718 285.27643Q281.57056 285.03336 282.29977 285.21014Q283.04 285.37585 283.714 286.04984Q284.32166 286.6575 284.52054 287.54138Q284.7194 288.40317 284.3548 289.276Q283.9902 290.14883 283.06213 291.0769Q281.7142 292.42484 280.37732 292.52426Q279.04044 292.62372 277.70358 291.5741ZM287.43735 281.2437L286.2441 280.05048L289.32663 276.96793L292.15506 279.79636Q292.13297 280.68024 291.61368 281.86243Q291.09442 283.04462 290.21054 283.9285Q289.10568 285.03336 287.813 285.39795Q286.50928 285.7515 285.22763 285.30957Q283.946 284.84552 282.92953 283.82907Q281.82468 282.7242 281.42694 281.39838Q281.02917 280.07257 281.47113 278.72464Q281.80258 277.68607 282.808 276.68066Q284.13382 275.35483 285.4265 275.167Q286.71918 274.9792 287.90137 275.74152L286.75232 277.4209Q286.07837 277.0563 285.36023 277.17783Q284.64206 277.27728 284.02335 277.896Q283.09528 278.82407 283.12842 279.98416Q283.1726 281.1332 284.34375 282.30435Q285.60327 283.5639 286.79654 283.6302Q287.98978 283.69647 288.89575 282.7905Q289.34875 282.33752 289.62497 281.70773Q289.90115 281.07797 289.97852 280.5145L289.07254 279.60852L287.43735 281.2437ZM294.49738 279.3986L287.41525 272.31647L289.55865 270.17307L295.67957 273.7086L292.12192 267.6098L294.26535 265.46637L301.34747 272.5485L300.02164 273.87433L294.4421 268.2948L298.60742 275.28854L297.2374 276.65857L290.25473 272.4822L295.83423 278.06174L294.49738 279.3986Z" fill-rule="nonzero"/><path fill="#000000" d="M306.45123 318.25632L299.3691 311.17422L302.3743 308.169Q303.5123 307.031 304.20837 306.7106Q304.91547 306.37915 305.72202 306.567Q306.51752 306.74374 307.13623 307.36246Q307.94278 308.169 307.98697 309.1634Q308.0422 310.1467 307.2467 311.20737Q307.97592 311.00848 308.60568 311.04163Q309.23544 311.05267 310.57233 311.37308L312.8152 311.89236L311.10266 313.6049L308.52835 313.0856Q307.15833 312.82043 306.7385 312.82043Q306.31863 312.79834 306.00928 312.95303Q305.69992 313.0856 305.20273 313.5828L304.91547 313.87006L307.8765 316.8311L306.45123 318.25632ZM303.7885 312.7431L304.84918 311.68243Q305.8767 310.65494 306.04242 310.31244Q306.2192 309.95886 306.15292 309.60532Q306.0866 309.25177 305.7662 308.93137Q305.4016 308.56677 304.99283 308.55573Q304.584 308.52255 304.17523 308.79877Q303.97635 308.95346 303.10352 309.8263L301.9876 310.9422L303.7885 312.7431ZM314.83707 306.60013L316.42807 305.47318Q316.90314 306.47858 316.73743 307.43982Q316.56064 308.38998 315.72095 309.22968Q314.38406 310.56656 312.84833 310.33453Q311.64404 310.1467 310.57233 309.07498Q309.30176 307.8044 309.2465 306.42334Q309.19125 305.02017 310.21878 303.99268Q311.35678 302.85468 312.78204 302.9541Q314.19626 303.04248 315.72095 304.63348L312.318 308.03644Q312.94775 308.622 313.59964 308.65515Q314.2515 308.6662 314.71555 308.20215Q315.03595 307.88174 315.0691 307.49506Q315.11328 307.0973 314.83707 306.60013ZM313.54437 305.15277Q312.9367 304.5672 312.35114 304.55615Q311.75452 304.53403 311.3347 304.9539Q310.89273 305.3958 310.91483 306.01456Q310.959 306.63327 311.5225 307.17465L313.54437 305.15277ZM320.01883 297.46298L318.92502 299.0429Q318.44995 298.7004 318.008 298.7446Q317.57712 298.77774 317.1904 299.16446Q316.68216 299.67267 316.73743 300.32455Q316.78162 300.96536 317.5992 301.78296Q318.51624 302.69998 319.1902 302.7773Q319.8752 302.84363 320.39447 302.32434Q320.7812 301.93762 320.80328 301.4736Q320.83643 300.9985 320.40552 300.36874L321.96338 299.25284Q322.68152 300.39084 322.56 301.46255Q322.43848 302.51215 321.4441 303.50653Q320.31714 304.63348 318.93607 304.60034Q317.55502 304.54507 316.29547 303.28555Q315.0249 302.01498 314.99176 300.6339Q314.9586 299.25284 316.10764 298.1038Q317.03574 297.17572 317.99695 297.03207Q318.95816 296.86636 320.01883 297.46298ZM321.86395 297.5624Q321.18997 296.88846 320.89166 295.92722Q320.5823 294.95496 320.85852 294.01584Q321.14578 293.06564 321.8971 292.31436Q323.06824 291.14322 324.57083 291.1653Q326.06238 291.17636 327.21143 292.3254Q328.38257 293.49655 328.40466 295.02124Q328.41574 296.53488 327.27774 297.67288Q326.57062 298.38 325.6094 298.7004Q324.64816 299.0208 323.698 298.73355Q322.74783 298.4463 321.86395 297.5624ZM323.3334 296.24762Q324.09573 297.00998 324.86914 297.05417Q325.6315 297.0873 326.16183 296.557Q326.69214 296.02667 326.64795 295.27536Q326.60376 294.50195 325.83035 293.72858Q325.07907 292.97726 324.30566 292.93307Q323.5433 292.87784 323.013 293.40817Q322.48267 293.93848 322.52686 294.71188Q322.57104 295.4853 323.3334 296.24762ZM335.8514 288.85617L334.49243 290.21512L331.87393 287.59662Q331.0453 286.76797 330.71384 286.6133Q330.3713 286.44757 330.03986 286.51385Q329.71945 286.56912 329.44324 286.84534Q329.0897 287.19888 329.0013 287.685Q328.9129 288.14905 329.12283 288.57996Q329.3438 288.9998 330.2056 289.86157L332.5258 292.18176L331.1668 293.54074L326.02924 288.40317L327.29984 287.1326L328.06216 287.89493Q327.85226 286.3592 328.87976 285.33167Q329.32172 284.88974 329.8631 284.6798Q330.3934 284.45883 330.83536 284.52512Q331.2773 284.59143 331.67505 284.8345Q332.06174 285.0665 332.65836 285.66312L335.8514 288.85617ZM337.57498 287.1326L330.49286 280.05048L331.88498 278.65836L339.50845 280.4924L334.7797 275.76364L336.1055 274.4378L343.18762 281.51993L341.7513 282.95624L334.2825 281.18848L338.9008 285.80676L337.57498 287.1326ZM345.94977 275.48743L347.54074 274.36047Q348.01584 275.36588 347.85013 276.32712Q347.67334 277.27728 346.83365 278.11697Q345.49677 279.45386 343.96103 279.22183Q342.75674 279.034 341.68503 277.96228Q340.41446 276.6917 340.3592 275.31064Q340.30396 273.90747 341.33148 272.87997Q342.46948 271.74197 343.89474 271.8414Q345.30896 271.92978 346.83365 273.52078L343.4307 276.92374Q344.06046 277.5093 344.71234 277.54245Q345.3642 277.5535 345.82822 277.08945Q346.14865 276.76904 346.1818 276.38235Q346.22598 275.98462 345.94977 275.48743ZM344.65707 274.04007Q344.0494 273.4545 343.46384 273.44345Q342.86722 273.42136 342.4474 273.8412Q342.00543 274.28314 342.02753 274.90186Q342.07172 275.52057 342.6352 276.06195L344.65707 274.04007ZM347.4855 266.9469L348.56827 268.02966L347.6402 268.95773L349.71732 271.03485Q350.33603 271.65356 350.46863 271.74197Q350.6012 271.80826 350.76694 271.7972Q350.93265 271.76407 351.0763 271.62042Q351.26413 271.43262 351.48508 270.94647L352.64517 271.8856Q352.39105 272.55957 351.7834 273.16724Q351.4188 273.53183 350.99896 273.70862Q350.5791 273.86328 350.24765 273.8191Q349.9162 273.7528 349.52948 273.4766Q349.24222 273.2777 348.52408 272.55957L346.28122 270.3167L345.6625 270.93542L344.57974 269.85266L345.19846 269.23395L344.182 268.21747L344.74548 266.06302L346.55743 267.87497L347.4855 266.9469Z" fill-rule="nonzero"/><path fill="#000000" d="M370.87463 304.6445L364.98575 298.75565L362.8755 300.8659L361.68225 299.67267L367.31702 294.0379L368.51025 295.23114L366.411 297.33038L372.2999 303.21924L370.87463 304.6445ZM377.44852 298.07062L367.83627 293.51862L369.3831 291.97183L376.40994 295.41898L372.90756 288.44736L374.43228 286.92264L378.9732 296.54593L377.44852 298.07062ZM388.3976 287.12152L386.83978 288.67935L384.60797 287.685L381.7685 290.52448L382.79602 292.72314L381.28238 294.2368L376.96237 284.39252L378.47604 282.87888L388.3976 287.12152ZM382.95068 286.95578L379.34888 285.29852L381.0172 288.88928L382.95068 286.95578ZM389.11578 286.40338L382.0889 279.3765L383.51416 277.95123L389.3478 283.78485L392.90543 280.22723L394.09866 281.42047L389.11578 286.40338ZM393.38052 278.36002L392.02155 277.00107L394.69528 274.3273L396.05426 275.68628L393.38052 278.36002ZM396.75034 275.01233L397.89938 273.5318Q398.46286 273.9848 399.00424 273.97375Q399.5456 273.9627 399.94336 273.56497Q400.3632 273.1451 400.33005 272.53745Q400.2969 271.92978 399.75552 271.3884Q399.24728 270.88016 398.67276 270.85806Q398.09824 270.83597 397.7005 271.2337Q397.43533 271.49887 397.1812 271.95187L396.22 270.7034Q396.78348 270.16202 396.81662 269.62064Q396.8608 269.0682 396.44098 268.64835Q396.0874 268.2948 395.65652 268.30585Q395.22562 268.2948 394.87207 268.64835Q394.52957 268.99088 394.51852 269.48804Q394.51852 269.97418 394.9273 270.49347L393.4689 271.532Q392.94962 270.7476 392.8281 270.11783Q392.70657 269.46594 392.96066 268.7699Q393.21478 268.07382 393.80035 267.48825Q394.79474 266.4939 396.0432 266.52704Q397.0597 266.54913 397.71155 267.201Q398.65067 268.14014 398.18665 269.709Q398.92688 269.23392 399.74448 269.32233Q400.56207 269.4107 401.20288 270.0515Q402.14203 270.99066 402.1199 272.33856Q402.08676 273.67545 401.08136 274.68085Q400.12012 275.6421 398.92688 275.73047Q397.7447 275.8078 396.75034 275.01233Z" fill-rule="nonzero"/><path fill="#000000" d="M443.4629 282.86783L436.43604 275.84097L437.8613 274.4157L443.69492 280.24933L447.25256 276.6917L448.4458 277.88495L443.4629 282.86783ZM452.96466 273.3661L451.60568 274.72507L446.4902 269.6096Q446.43497 271.05695 445.761 272.39383L444.52356 271.15637Q444.88815 270.46033 445.02075 269.35547Q445.16437 268.23956 444.74454 267.35568L445.8494 266.25082L452.96466 273.3661Z" fill-rule="nonzero"/><path fill="#000000" d="M466.6421 296.33603L469.24954 293.72858Q470.14447 292.83362 470.7411 292.50217Q471.5366 292.06024 472.4536 292.09338Q473.3596 292.11548 474.27664 292.56848Q475.18262 293.0104 476.17697 294.0048Q477.06085 294.88867 477.4807 295.72836Q477.98895 296.7669 477.96683 297.7392Q477.95578 298.47943 477.5249 299.30807Q477.2045 299.93784 476.409 300.73334L473.7242 303.41815L466.6421 296.33603ZM469.2606 296.104L473.9562 300.79962L475.02792 299.72794Q475.62454 299.13132 475.82343 298.79984Q476.0886 298.3579 476.09964 297.927Q476.12173 297.48508 475.79028 296.86636Q475.46988 296.23657 474.65228 295.419Q473.82364 294.59036 473.23807 294.31415Q472.6525 294.01584 472.14426 294.03793Q471.63602 294.03793 471.1499 294.3473Q470.78528 294.5793 469.9014 295.4632L469.2606 296.104ZM478.74023 294.6235L477.38126 293.26453L480.05502 290.5908L481.41397 291.94974L478.74023 294.6235ZM490.7279 286.41443L489.17007 287.97226L486.93826 286.9779L484.0988 289.81738L485.12628 292.01605L483.61264 293.5297L479.29266 283.68542L480.8063 282.17178L490.7279 286.41443ZM485.28098 286.2487L481.67914 284.59143L483.34747 288.1822L485.28098 286.2487ZM491.37976 285.76257L484.29767 278.68045L486.44107 276.53702L492.56198 280.07257L489.00433 273.97375L491.14777 271.83035L498.22986 278.91248L496.90405 280.23828L491.32452 274.65878L495.48984 281.6525L494.1198 283.02252L487.13715 278.8462L492.71664 284.4257L491.37976 285.76257ZM499.88712 277.25522L492.80502 270.1731L495.10312 267.875Q496.40683 266.57126 496.90402 266.27295Q497.67743 265.83102 498.61655 265.95255Q499.5667 266.06302 500.41745 266.91376Q501.06934 267.56564 501.2682 268.25064Q501.47812 268.9246 501.36765 269.54333Q501.25714 270.16205 500.95883 270.63712Q500.55005 271.2448 499.57776 272.21707L498.6497 273.14514L501.32343 275.8189L499.88712 277.25522ZM495.43457 269.93002L497.4454 271.94086L498.22986 271.1564Q499.06955 270.3167 499.2463 269.91898Q499.4231 269.52124 499.34576 269.13452Q499.2684 268.72574 498.95905 268.41638Q498.57236 268.02966 498.0862 268.00757Q497.6111 267.97443 497.19128 268.2617Q496.89297 268.47162 496.11957 269.24503L495.43457 269.93002Z" fill-rule="nonzero"/><path fill="#000000" d="M519.60815 308.34576L512.52606 301.26367L513.91815 299.87155L521.5416 301.7056L516.81287 296.9768L518.1387 295.651L525.2208 302.73312L523.7845 304.16943L516.3157 302.40164L520.93396 307.01996L519.60815 308.34576ZM526.7013 301.2526L519.67444 294.22574L521.09973 292.80048L526.93335 298.6341L530.49097 295.07648L531.6842 296.2697L526.7013 301.2526ZM533.03217 294.92178L525.95 287.8397L528.9552 284.83447Q530.0932 283.69647 530.7893 283.37607Q531.4964 283.04462 532.3029 283.23242Q533.09845 283.4092 533.71716 284.02792Q534.5237 284.83447 534.5679 285.82883Q534.6231 286.81216 533.82764 287.87283Q534.5568 287.67395 535.1866 287.7071Q535.81635 287.71814 537.15326 288.03854L539.3961 288.55783L537.6836 290.27036L535.10925 289.75107Q533.73926 289.4859 533.3194 289.4859Q532.89954 289.4638 532.5902 289.6185Q532.2808 289.75107 531.7836 290.24826L531.4964 290.53552L534.4574 293.49652L533.03217 294.92178ZM530.36945 289.40857L531.4301 288.3479Q532.45764 287.3204 532.62335 286.97787Q532.8001 286.62433 532.7338 286.27078Q532.66754 285.91724 532.3471 285.59683Q531.98254 285.2322 531.5737 285.22116Q531.1649 285.18802 530.75616 285.46423Q530.55725 285.61893 529.68445 286.49176L528.56854 287.60767L530.36945 289.40857ZM538.0371 286.1382L536.67816 284.77924L539.3519 282.10547L540.7109 283.46445L538.0371 286.1382ZM545.56116 277.17783L547.3842 276.2387Q548.2239 277.7192 548.0471 279.02295Q547.87036 280.32666 546.73236 281.46466Q545.3181 282.87888 543.4399 282.8347Q541.5616 282.7684 539.8933 281.10007Q538.1255 279.3323 538.07025 277.443Q538.00397 275.54263 539.49554 274.0511Q540.7882 272.75842 542.36816 272.7032Q543.3073 272.67 544.39 273.28876L543.31836 275.04547Q542.64435 274.61456 541.9262 274.6919Q541.20807 274.76926 540.63354 275.34378Q539.84906 276.12823 539.92645 277.19992Q540.0038 278.24954 541.2633 279.50906Q542.6112 280.857 543.6608 280.95642Q544.71045 281.03378 545.4838 280.26038Q546.05835 279.68585 546.1136 278.9235Q546.15784 278.15012 545.56116 277.17783ZM548.025 275.31064L549.28455 273.78592Q550.11316 274.3494 550.8203 274.3052Q551.53845 274.24997 552.1903 273.5981Q552.88635 272.90204 552.9416 272.27228Q552.9968 271.62042 552.61017 271.2337Q552.356 270.9796 552.03564 270.94644Q551.7152 270.9133 551.207 271.15637Q550.87555 271.31107 549.75964 271.98502Q548.3233 272.8468 547.4505 272.90204Q546.2131 272.96832 545.37335 272.12866Q544.832 271.58728 544.6552 270.81387Q544.4895 270.02942 544.8209 269.21182Q545.16345 268.38318 545.981 267.5656Q547.3069 266.23978 548.5664 266.1514Q549.8259 266.063 550.8424 266.9911L549.47235 268.49368Q548.83154 268.02963 548.29016 268.10696Q547.7488 268.16223 547.1411 268.7699Q546.5224 269.3886 546.423 269.99628Q546.3567 270.394 546.6329 270.67023Q546.887 270.92435 547.2848 270.88016Q547.7709 270.83597 549.0636 270.0515Q550.35626 269.24496 551.1186 269.01297Q551.892 268.7699 552.6212 268.94666Q553.36145 269.1124 554.0354 269.78635Q554.64307 270.394 554.842 271.27792Q555.04083 272.1397 554.6762 273.01254Q554.31165 273.88538 553.38354 274.81345Q552.03564 276.16138 550.6987 276.2608Q549.3619 276.36023 548.025 275.31064Z" fill-rule="nonzero"/><path fill="#ea4335" d="M218.5 21.55C218.5 20.997715 218.94771 20.55 219.5 20.55L229.5 20.55C230.05229 20.55 230.5 20.997715 230.5 21.55L230.5 31.55C230.5 32.102283 230.05229 32.55 229.5 32.55L219.5 32.55C218.94771 32.55 218.5 32.102283 218.5 31.55Z" fill-rule="nonzero"/><path fill="#1a1a1a" d="M239.0 28.284374L240.96875 28.096874Q241.15625 29.08125 241.6875 29.55Q242.23438 30.01875 243.15625 30.01875Q244.14062 30.01875 244.625 29.6125Q245.125 29.190624 245.125 28.64375Q245.125 28.284374 244.92188 28.034374Q244.71875 27.784374 244.1875 27.596874Q243.84375 27.471874 242.57812 27.159374Q240.95312 26.753124 240.29688 26.175Q239.375 25.346874 239.375 24.159374Q239.375 23.39375 239.79688 22.721874Q240.23438 22.05 241.04688 21.70625Q241.875 21.3625 243.03125 21.3625Q244.90625 21.3625 245.85938 22.190624Q246.8125 23.01875 246.875 24.39375L244.84375 24.4875Q244.71875 23.70625 244.28125 23.378124Q243.85938 23.034374 243.0 23.034374Q242.125 23.034374 241.625 23.39375Q241.29688 23.628124 241.29688 24.01875Q241.29688 24.378124 241.60938 24.628124Q241.98438 24.940624 243.45312 25.3Q244.9375 25.64375 245.64062 26.01875Q246.35938 26.39375 246.75 27.034374Q247.15625 27.675 247.15625 28.628124Q247.15625 29.4875 246.67188 30.253124Q246.20312 31.003124 245.32812 31.3625Q244.45312 31.721874 243.14062 31.721874Q241.23438 31.721874 240.21875 30.846874Q239.20312 29.971874 239.0 28.284374ZM248.45312 24.284374L250.23438 24.284374L250.23438 25.3625Q250.59375 24.815624 251.1875 24.471874Q251.78125 24.128124 252.5 24.128124Q253.76562 24.128124 254.64062 25.128124Q255.53125 26.1125 255.53125 27.878124Q255.53125 29.690624 254.64062 30.70625Q253.75 31.721874 252.48438 31.721874Q251.89062 31.721874 251.39062 31.4875Q250.90625 31.2375 250.375 30.659374L250.375 34.315624L248.45312 34.315624L248.45312 24.284374ZM250.34375 27.8Q250.34375 29.01875 250.82812 29.6125Q251.32812 30.190624 252.01562 30.190624Q252.6875 30.190624 253.125 29.659374Q253.57812 29.1125 253.57812 27.89375Q253.57812 26.753124 253.10938 26.20625Q252.65625 25.64375 251.98438 25.64375Q251.28125 25.64375 250.8125 26.190624Q250.34375 26.7375 250.34375 27.8ZM261.70312 29.2375L263.625 29.565624Q263.25 30.6125 262.45312 31.175Q261.65625 31.721874 260.46875 31.721874Q258.57812 31.721874 257.65625 30.471874Q256.9375 29.4875 256.9375 27.971874Q256.9375 26.175 257.875 25.159374Q258.82812 24.128124 260.28125 24.128124Q261.89062 24.128124 262.82812 25.20625Q263.76562 26.26875 263.71875 28.471874L258.90625 28.471874Q258.9375 29.33125 259.375 29.815624Q259.82812 30.284374 260.48438 30.284374Q260.9375 30.284374 261.23438 30.034374Q261.54688 29.784374 261.70312 29.2375ZM261.8125 27.3Q261.79688 26.45625 261.39062 26.034374Q260.98438 25.596874 260.39062 25.596874Q259.76562 25.596874 259.34375 26.05Q258.9375 26.51875 258.95312 27.3L261.8125 27.3ZM269.70312 29.2375L271.625 29.565624Q271.25 30.6125 270.45312 31.175Q269.65625 31.721874 268.46875 31.721874Q266.57812 31.721874 265.65625 30.471874Q264.9375 29.4875 264.9375 27.971874Q264.9375 26.175 265.875 25.159374Q266.82812 24.128124 268.28125 24.128124Q269.89062 24.128124 270.82812 25.20625Q271.76562 26.26875 271.71875 28.471874L266.90625 28.471874Q266.9375 29.33125 267.375 29.815624Q267.82812 30.284374 268.48438 30.284374Q268.9375 30.284374 269.23438 30.034374Q269.54688 29.784374 269.70312 29.2375ZM269.8125 27.3Q269.79688 26.45625 269.39062 26.034374Q268.98438 25.596874 268.39062 25.596874Q267.76562 25.596874 267.34375 26.05Q266.9375 26.51875 266.95312 27.3L269.8125 27.3ZM280.15625 31.55L278.375 31.55L278.375 30.4875Q277.9375 31.1125 277.32812 31.425Q276.71875 31.721874 276.10938 31.721874Q274.85938 31.721874 273.96875 30.70625Q273.07812 29.690624 273.07812 27.89375Q273.07812 26.05 273.9375 25.096874Q274.8125 24.128124 276.14062 24.128124Q277.35938 24.128124 278.25 25.14375L278.25 21.534374L280.15625 21.534374L280.15625 31.55ZM275.03125 27.76875Q275.03125 28.925 275.35938 29.440624Q275.82812 30.190624 276.65625 30.190624Q277.3125 30.190624 277.78125 29.628124Q278.25 29.065624 278.25 27.940624Q278.25 26.690624 277.79688 26.14375Q277.34375 25.596874 276.64062 25.596874Q275.95312 25.596874 275.48438 26.14375Q275.03125 26.675 275.03125 27.76875Z" fill-rule="nonzero"/><path fill="#4285f4" d="M297.5 21.55C297.5 20.997715 297.94772 20.55 298.5 20.55L308.5 20.55C309.05228 20.55 309.5 20.997715 309.5 21.55L309.5 31.55C309.5 32.102283 309.05228 32.55 308.5 32.55L298.5 32.55C297.94772 32.55 297.5 32.102283 297.5 31.55Z" fill-rule="nonzero"/><path fill="#1a1a1a" d="M327.5625 31.55L325.35938 31.55L324.48438 29.26875L320.46875 29.26875L319.64062 31.55L317.5 31.55L321.40625 21.534374L323.54688 21.534374L327.5625 31.55ZM323.82812 27.58125L322.45312 23.8625L321.09375 27.58125L323.82812 27.58125ZM334.82812 26.440624L332.9375 26.784374Q332.84375 26.20625 332.5 25.925Q332.17188 25.64375 331.625 25.64375Q330.90625 25.64375 330.48438 26.14375Q330.0625 26.628124 330.0625 27.784374Q330.0625 29.08125 330.48438 29.6125Q330.92188 30.14375 331.65625 30.14375Q332.20312 30.14375 332.54688 29.83125Q332.90625 29.51875 333.04688 28.76875L334.9375 29.08125Q334.64062 30.39375 333.79688 31.065624Q332.96875 31.721874 331.5625 31.721874Q329.96875 31.721874 329.01562 30.721874Q328.07812 29.70625 328.07812 27.925Q328.07812 26.128124 329.03125 25.128124Q329.98438 24.128124 331.60938 24.128124Q332.92188 24.128124 333.70312 24.70625Q334.5 25.26875 334.82812 26.440624ZM342.82812 26.440624L340.9375 26.784374Q340.84375 26.20625 340.5 25.925Q340.17188 25.64375 339.625 25.64375Q338.90625 25.64375 338.48438 26.14375Q338.0625 26.628124 338.0625 27.784374Q338.0625 29.08125 338.48438 29.6125Q338.92188 30.14375 339.65625 30.14375Q340.20312 30.14375 340.54688 29.83125Q340.90625 29.51875 341.04688 28.76875L342.9375 29.08125Q342.64062 30.39375 341.79688 31.065624Q340.96875 31.721874 339.5625 31.721874Q337.96875 31.721874 337.01562 30.721874Q336.07812 29.70625 336.07812 27.925Q336.07812 26.128124 337.03125 25.128124Q337.98438 24.128124 339.60938 24.128124Q340.92188 24.128124 341.70312 24.70625Q342.5 25.26875 342.82812 26.440624ZM349.28125 31.55L349.28125 30.45625Q348.89062 31.05 348.23438 31.39375Q347.59375 31.721874 346.875 31.721874Q346.14062 31.721874 345.5625 31.39375Q344.98438 31.065624 344.71875 30.4875Q344.46875 29.909374 344.46875 28.878124L344.46875 24.284374L346.39062 24.284374L346.39062 27.628124Q346.39062 29.159374 346.48438 29.503124Q346.59375 29.846874 346.875 30.05Q347.15625 30.253124 347.59375 30.253124Q348.07812 30.253124 348.46875 29.9875Q348.85938 29.70625 349.0 29.315624Q349.14062 28.909374 349.14062 27.346874L349.14062 24.284374L351.0625 24.284374L351.0625 31.55L349.28125 31.55ZM355.34375 31.55L353.42188 31.55L353.42188 24.284374L355.20312 24.284374L355.20312 25.315624Q355.67188 24.596874 356.03125 24.3625Q356.39062 24.128124 356.85938 24.128124Q357.51562 24.128124 358.125 24.4875L357.53125 26.159374Q357.04688 25.846874 356.625 25.846874Q356.21875 25.846874 355.9375 26.08125Q355.67188 26.3 355.5 26.878124Q355.34375 27.45625 355.34375 29.3L355.34375 31.55ZM359.9375 26.503124L358.20312 26.190624Q358.48438 25.14375 359.20312 24.64375Q359.92188 24.128124 361.34375 24.128124Q362.625 24.128124 363.25 24.440624Q363.89062 24.7375 364.14062 25.20625Q364.39062 25.675 364.39062 26.925L364.375 29.159374Q364.375 30.128124 364.46875 30.58125Q364.5625 31.034374 364.8125 31.55L362.92188 31.55Q362.84375 31.3625 362.73438 30.9875Q362.6875 30.815624 362.65625 30.753124Q362.17188 31.2375 361.60938 31.4875Q361.04688 31.721874 360.40625 31.721874Q359.29688 31.721874 358.64062 31.1125Q358.0 30.503124 358.0 29.565624Q358.0 28.95625 358.29688 28.471874Q358.59375 27.9875 359.10938 27.7375Q359.64062 27.471874 360.64062 27.284374Q361.98438 27.034374 362.51562 26.815624L362.51562 26.628124Q362.51562 26.065624 362.23438 25.83125Q361.96875 25.596874 361.20312 25.596874Q360.6875 25.596874 360.40625 25.8Q360.125 26.003124 359.9375 26.503124ZM362.51562 28.065624Q362.14062 28.190624 361.34375 28.3625Q360.54688 28.534374 360.29688 28.690624Q359.92188 28.95625 359.92188 29.3625Q359.92188 29.76875 360.21875 30.065624Q360.51562 30.3625 360.98438 30.3625Q361.5 30.3625 361.98438 30.01875Q362.32812 29.753124 362.4375 29.378124Q362.51562 29.14375 362.51562 28.440624L362.51562 28.065624ZM372.82812 26.440624L370.9375 26.784374Q370.84375 26.20625 370.5 25.925Q370.17188 25.64375 369.625 25.64375Q368.90625 25.64375 368.48438 26.14375Q368.0625 26.628124 368.0625 27.784374Q368.0625 29.08125 368.48438 29.6125Q368.92188 30.14375 369.65625 30.14375Q370.20312 30.14375 370.54688 29.83125Q370.90625 29.51875 371.04688 28.76875L372.9375 29.08125Q372.64062 30.39375 371.79688 31.065624Q370.96875 31.721874 369.5625 31.721874Q367.96875 31.721874 367.01562 30.721874Q366.07812 29.70625 366.07812 27.925Q366.07812 26.128124 367.03125 25.128124Q367.98438 24.128124 369.60938 24.128124Q370.92188 24.128124 371.70312 24.70625Q372.5 25.26875 372.82812 26.440624ZM373.59375 24.284374L375.64062 24.284374L377.375 29.440624L379.07812 24.284374L381.0625 24.284374L378.5 31.26875L378.04688 32.534374Q377.78125 33.175 377.54688 33.503124Q377.32812 33.846874 377.03125 34.05Q376.73438 34.26875 376.29688 34.378124Q375.85938 34.503124 375.3125 34.503124Q374.76562 34.503124 374.23438 34.378124L374.0625 32.878124Q374.51562 32.971874 374.875 32.971874Q375.54688 32.971874 375.85938 32.565624Q376.1875 32.175 376.35938 31.565624L373.59375 24.284374Z" fill-rule="nonzero"/></svg>
